<?xml version="1.0" encoding="utf-8"?>
<!-- Generator: Adobe Illustrator 26.0.3, SVG Export Plug-In . SVG Version: 6.00 Build 0)  -->
<svg version="1.1"
	 id="svg9" inkscape:version="1.1.2 (0a00cf5339, 2022-02-04, custom)" sodipodi:docname="Ferdium.svg" xmlns:inkscape="http://www.inkscape.org/namespaces/inkscape" xmlns:serif="http://www.serif.com/" xmlns:sodipodi="http://sodipodi.sourceforge.net/DTD/sodipodi-0.dtd" xmlns:svg="http://www.w3.org/2000/svg"
	 xmlns="http://www.w3.org/2000/svg" xmlns:xlink="http://www.w3.org/1999/xlink" x="0px" y="0px" viewBox="0 0 512 512"
	 style="enable-background:new 0 0 512 512;" xml:space="preserve">
<style type="text/css">
	.st0{display:none;}
	.st1{display:inline;fill-rule:evenodd;clip-rule:evenodd;fill:#7E7E7E;}
	.st2{display:inline;}
	
		.st3{fill-rule:evenodd;clip-rule:evenodd;fill:url(#path870_00000026158774974550782500000010219097466067674007_);stroke:#FFFFFF;stroke-width:12.8;stroke-linecap:square;stroke-linejoin:round;stroke-miterlimit:1.024;}
	.st4{fill-rule:evenodd;clip-rule:evenodd;fill:#FFFFFF;}
	
		.st5{fill-rule:evenodd;clip-rule:evenodd;fill:url(#circle1113_00000057135151969643970020000002309479894307053982_);stroke:#FFFFFF;stroke-width:12.8;stroke-linecap:square;stroke-linejoin:round;stroke-miterlimit:1.024;}
	
		.st6{fill-rule:evenodd;clip-rule:evenodd;fill:url(#circle3889_00000147188186079077258540000000774080630942378425_);stroke:#FFFFFF;stroke-width:12.8;stroke-linecap:square;stroke-linejoin:round;stroke-miterlimit:1.024;}
	.st7{fill-rule:evenodd;clip-rule:evenodd;fill:url(#circle1016_00000073686331057464903120000009921045060015362991_);}
	.st8{display:none;opacity:0.3775;}
	.st9{fill-rule:evenodd;clip-rule:evenodd;}
</style>
<sodipodi:namedview  bordercolor="#666666" borderopacity="1.0" id="namedview11" inkscape:current-layer="g1018" inkscape:guide-bbox="true" inkscape:pagecheckerboard="0" inkscape:pageopacity="0.0" inkscape:pageshadow="2" pagecolor="#ffffff" showgrid="false" showguides="true">
	</sodipodi:namedview>
<g id="layer5" inkscape:groupmode="layer" inkscape:label="FakeDocumentBack" sodipodi:insensitive="true" class="st0">
	<rect id="rect1659" x="0" y="0" class="st1" width="512" height="512"/>
</g>
<g id="layer2" inkscape:groupmode="layer" inkscape:label="New" class="st0">
	<g id="layer3" inkscape:groupmode="layer" inkscape:label="Back" class="st2">
		
			<linearGradient id="path870_00000029029543165683984250000003394365670209864331_" gradientUnits="userSpaceOnUse" x1="500.3292" y1="503.4597" x2="500.3292" y2="-473.7948" gradientTransform="matrix(0.512 0 0 -0.512 0 262.144)">
			<stop  offset="0" style="stop-color:#002239"/>
			<stop  offset="0.4981" style="stop-color:#0062A3"/>
			<stop  offset="1" style="stop-color:#002239"/>
		</linearGradient>
		
			<circle id="path870" style="fill-rule:evenodd;clip-rule:evenodd;fill:url(#path870_00000029029543165683984250000003394365670209864331_);stroke:#FFFFFF;stroke-width:12.8;stroke-linecap:square;stroke-linejoin:round;stroke-miterlimit:1.024;" cx="256.2" cy="255.6" r="246.1"/>
	</g>
	<g id="layer4" inkscape:groupmode="layer" inkscape:label="Moustache" class="st2">
		<path id="path1148" class="st4" d="M256.6,200.3l-100,53.3L45.3,212.3l116.1,114.5l95.2-46.1l95.2,46.1l116.1-114.5l-111.3,41.3
			L256.6,200.3z"/>
	</g>
</g>
<g id="g1121" inkscape:groupmode="layer" inkscape:label="New 2" class="st0">
	<g id="g1115" inkscape:groupmode="layer" inkscape:label="Back" class="st2">
		
			<linearGradient id="circle1113_00000058552157840355405800000005237476222601646470_" gradientUnits="userSpaceOnUse" x1="500.3292" y1="503.4597" x2="500.3292" y2="-473.7948" gradientTransform="matrix(0.512 0 0 -0.512 0 262.144)">
			<stop  offset="0" style="stop-color:#002239"/>
			<stop  offset="0.4981" style="stop-color:#0062A3"/>
			<stop  offset="1" style="stop-color:#002239"/>
		</linearGradient>
		
			<circle id="circle1113" style="fill-rule:evenodd;clip-rule:evenodd;fill:url(#circle1113_00000058552157840355405800000005237476222601646470_);stroke:#FFFFFF;stroke-width:12.8;stroke-linecap:square;stroke-linejoin:round;stroke-miterlimit:1.024;" cx="256.2" cy="255.6" r="246.1"/>
	</g>
	<g id="g1119" inkscape:groupmode="layer" inkscape:label="Moustache" class="st2">
		<path id="path1117" sodipodi:nodetypes="zscszscsz" class="st4" d="M256.6,200.3c-14.3,0-82.7,53.3-94.4,53.3
			c-12.6,0-107.7-47.5-116.9-41.3c-5.1,11,93.5,114.5,116.1,114.5c22.1,0,87.6-46.1,95.2-46.1s73.1,46.1,95.2,46.1
			c22.5,0,121.2-103.5,116.1-114.5c-9.1-6.2-104.3,41.3-116.9,41.3C339.3,253.6,270.9,200.3,256.6,200.3z"/>
		
			<image style="overflow:visible;enable-background:new    ;" width="986" height="986" id="image3869" xlink:href="4B686C2A7ED303A7.png"  transform="matrix(0.512 0 0 0.512 3.584 3.072)">
		</image>
	</g>
</g>
<g id="g3899" inkscape:groupmode="layer" inkscape:label="New 3" class="st0">
	<g id="g3891" inkscape:groupmode="layer" inkscape:label="Back" class="st2">
		
			<linearGradient id="circle3889_00000124850289037158365280000004516040718105150600_" gradientUnits="userSpaceOnUse" x1="500.3292" y1="503.4597" x2="500.3292" y2="-473.7948" gradientTransform="matrix(0.512 0 0 -0.512 0 262.144)">
			<stop  offset="0" style="stop-color:#002239"/>
			<stop  offset="0.4981" style="stop-color:#0062A3"/>
			<stop  offset="1" style="stop-color:#002239"/>
		</linearGradient>
		
			<circle id="circle3889" style="fill-rule:evenodd;clip-rule:evenodd;fill:url(#circle3889_00000124850289037158365280000004516040718105150600_);stroke:#FFFFFF;stroke-width:12.8;stroke-linecap:square;stroke-linejoin:round;stroke-miterlimit:1.024;" cx="256.2" cy="255.6" r="246.1"/>
	</g>
	<g id="g3897" inkscape:groupmode="layer" inkscape:label="Moustache" class="st2">
		<path id="path3893" sodipodi:nodetypes="zscszscsz" class="st4" d="M256.6,200.3c-14.3,0-82.7,53.3-94.4,53.3
			c-12.6,0-91.8-30.6-100.9-24.5c-5.1,11,77.6,97.6,100.1,97.6c22.1,0,87.6-46.1,95.2-46.1s73.1,46.1,95.2,46.1
			c22.5,0,105.2-86.6,100.1-97.6c-9.1-6.2-88.3,24.5-100.9,24.5C339.3,253.6,270.9,200.3,256.6,200.3z"/>
	</g>
</g>
<g id="g1024" inkscape:groupmode="layer" inkscape:label="New 4">
	<g id="g1018" inkscape:groupmode="layer" inkscape:label="Back">
		
			<linearGradient id="circle1016_00000137847432078275244850000011627749736657852824_" gradientUnits="userSpaceOnUse" x1="82.1763" y1="429.5947" x2="430.1607" y2="81.6103">
			<stop  offset="0" style="stop-color:#7266F0"/>
			<stop  offset="1" style="stop-color:#734ED3"/>
		</linearGradient>
		
			<circle id="circle1016" style="fill-rule:evenodd;clip-rule:evenodd;fill:url(#circle1016_00000137847432078275244850000011627749736657852824_);" cx="256.2" cy="255.6" r="246.1"/>
	</g>
	<g id="g1022" inkscape:groupmode="layer" inkscape:label="Moustache">
		<path id="path1020" sodipodi:nodetypes="zscszscsz" class="st4" d="M256.6,200.3c-14.3,0-82.7,53.3-94.4,53.3
			c-12.6,0-91.8-30.6-100.9-24.5c-5.1,11,77.6,97.6,100.1,97.6c22.1,0,87.6-46.1,95.2-46.1s73.1,46.1,95.2,46.1
			c22.5,0,105.2-86.6,100.1-97.6c-9.1-6.2-88.3,24.5-100.9,24.5C339.3,253.6,270.9,200.3,256.6,200.3z"/>
	</g>
</g>
<g id="layer1" inkscape:groupmode="layer" inkscape:label="Original" sodipodi:insensitive="true" class="st8">
	<g id="Lower-beard" transform="translate(-7.7184e-5,7.9042e-5)" serif:id="Lower beard" class="st2">
		<path id="path2" class="st9" d="M257.9,322.4c12.2,0.1,37.5,1.1,39.6,5.3c6.9,13.8-25.4,94.9-39.8,103.2l0,0.7
			c-0.4,0-0.7-0.1-1.1-0.2c-0.4,0.1-0.7,0.2-1.1,0.2l0-0.7c-14.6-8.3-47.5-89.5-40.6-103.2c2.1-4.1,28-5.1,40.4-5.3v0
			c0.4,0,0.8,0,1.3,0C257,322.4,257.5,322.4,257.9,322.4L257.9,322.4z"/>
	</g>
	<g id="Upper-beard" transform="translate(-7.7184e-5,7.9042e-5)" serif:id="Upper beard" class="st2">
		<path id="path5" d="M255.4,182.9c25-0.7,38.9-22.5,65.8-10.8c37.4,16.3,49.2,61.6,92,70.8c16.1,3.5,25.8-9.3,35.9-18.8
			c3.3-3.1,8.2-9.7,10.1-9.1c1.9,0.6,1.8,7.2,1,10.7c-1.4,6.7-3.3,13.7-7.3,19.3c-5.4,7.6-12.6,14-20.2,19.4
			c-22.1,15.6-53.6,21.8-80.2,21.2c-18.3-0.4-38.7-5.6-55.6-12c-15.4-5.8-23.9-26.1-41.8-26.3c-18,0.3-26.5,20.6-41.9,26.3
			c-17,6.3-37.4,11.6-55.8,12c-26.7,0.6-58.2-5.6-80.4-21.2c-7.6-5.4-14.8-11.8-20.2-19.4c-4-5.6-5.9-12.6-7.3-19.3
			c-0.7-3.5-0.8-10.1,1-10.7c1.9-0.6,6.8,6,10.1,9.1c10.1,9.6,19.8,22.3,36,18.8c42.9-9.2,54.7-54.5,92.2-70.8
			C215.9,160.4,230.3,182.2,255.4,182.9L255.4,182.9z"/>
	</g>
</g>
</svg>
