<?xml version="1.0" encoding="UTF-8" standalone="no"?>
<!DOCTYPE svg PUBLIC "-//W3C//DTD SVG 1.1//EN" "http://www.w3.org/Graphics/SVG/1.1/DTD/svg11.dtd">
<svg width="100%" height="100%" viewBox="0 0 1000 1000" version="1.1" xmlns="http://www.w3.org/2000/svg" xmlns:xlink="http://www.w3.org/1999/xlink" xml:space="preserve" xmlns:serif="http://www.serif.com/" style="fill-rule:evenodd;clip-rule:evenodd;stroke-linejoin:round;stroke-miterlimit:2;">
    <g id="Logo" transform="matrix(13.3662,0,0,13.3662,20.0535,18.5803)">
        <g id="Background-Circle" serif:id="Background Circle" transform="matrix(0.707107,0.707107,-0.707107,0.707107,36.0061,-14.8263)">
            <path d="M35.9,71.5C16.3,71.5 0.4,55.6 0.4,36C0.4,16.4 16.3,0.6 35.9,0.6C55.5,0.6 71.4,16.5 71.4,36.1C71.4,55.7 55.5,71.5 35.9,71.5Z" style="fill:rgb(114,102,240);fill-rule:nonzero;"/>
        </g>
        <g id="Lower-beard" serif:id="Lower beard" transform="matrix(0.0748156,0,0,0.0748156,-1.50032,-1.39009)">
            <path d="M503.642,629.673C527.496,629.947 576.943,631.918 581,640C594.482,666.859 531.448,825.299 503.284,841.639L503.282,843C502.598,843 501.881,842.874 501.133,842.629C500.391,842.874 499.679,843 499,843L498.998,841.659C470.575,825.433 406.168,666.87 419.745,640C423.831,631.913 474.528,629.944 498.642,629.673L498.642,629.638C499.424,629.64 500.255,629.644 501.132,629.65C502.017,629.644 502.855,629.64 503.642,629.638L503.642,629.673Z" style="fill:white;"/>
        </g>
        <g id="Upper-beard" serif:id="Upper beard" transform="matrix(0.0748156,0,0,0.0748156,-1.50032,-1.39009)">
            <path d="M498.733,357.203C547.473,355.78 574.716,313.221 627.233,336.042C700.337,367.808 723.258,456.308 806.959,474.341C838.428,481.121 857.323,456.253 877.092,437.581C883.524,431.506 893.049,418.562 896.807,419.813C900.441,421.022 900.267,433.842 898.85,440.69C896.129,453.836 892.451,467.441 884.685,478.393C874.137,493.269 860.132,505.776 845.238,516.299C802.136,546.753 740.569,558.817 688.631,557.703C652.806,556.934 612.989,546.685 579.942,534.342C549.791,523.08 533.28,483.381 498.234,482.887C463.111,483.381 446.563,523.08 416.345,534.342C383.226,546.685 343.32,556.934 307.416,557.703C255.363,558.817 193.659,546.753 150.461,516.299C135.535,505.776 121.498,493.269 110.927,478.393C103.144,467.441 99.458,453.836 96.731,440.69C95.311,433.842 95.136,421.022 98.778,419.813C102.545,418.562 112.091,431.506 118.537,437.581C138.35,456.253 157.286,481.121 188.826,474.341C272.712,456.308 295.684,367.808 368.949,336.042C421.583,313.221 449.854,355.78 498.733,357.203Z" style="fill:rgb(254,254,254);fill-rule:nonzero;"/>
        </g>
    </g>
</svg>
